<?xml version="1.0" encoding="utf-8"?><svg viewBox="0 0 24 25" xmlns="http://www.w3.org/2000/svg" xmlns:xlink="http://www.w3.org/1999/xlink"><style>:root>svg{display:none}:root>svg:target{display:block}</style><svg fill="none" viewBox="0 0 16 16" id="arrow-btn" xmlns="http://www.w3.org/2000/svg"><path d="M10 14.667a.668.668 0 0 1-.597-.369l-1.978-3.957a.67.67 0 0 1 .048-.678l3.194-4.33-4.33 3.194a.67.67 0 0 1-.678.048L1.702 6.597a.668.668 0 0 1 .067-1.222L14.436.708a.668.668 0 0 1 .856.856l-4.667 12.667a.666.666 0 0 1-.625.436Z" fill="#fff"/></svg><svg fill="none" viewBox="0 0 20 21" id="cart" xmlns="http://www.w3.org/2000/svg"><path d="m1.222 1.5 2.024.36.937 11.445c.075.935.836 1.652 1.751 1.65h10.614c.873.002 1.613-.657 1.737-1.543l.923-6.543c.104-.73-.392-1.41-1.104-1.515-.062-.009-14.533-.014-14.533-.014M12.29 9.027h2.698" stroke="#31352B" stroke-width="1.5" stroke-linecap="round" stroke-linejoin="round"/><path fill-rule="evenodd" clip-rule="evenodd" d="M5.507 18.413c.293 0 .53.244.53.543 0 .3-.237.544-.53.544a.536.536 0 0 1-.53-.544c0-.3.237-.543.53-.543ZM16.483 18.413c.293 0 .53.244.53.543 0 .3-.238.544-.53.544a.536.536 0 0 1-.53-.544c0-.3.237-.543.53-.543Z" fill="#31352B" stroke="#31352B" stroke-width="1.5" stroke-linecap="round" stroke-linejoin="round"/></svg><svg fill="none" viewBox="0 0 11 22" id="facebook" xmlns="http://www.w3.org/2000/svg"><path d="M3.056 21.263v-9.631H.509V8.164h2.547V5.202c0-2.328 1.504-4.465 4.97-4.465 1.404 0 2.442.134 2.442.134l-.082 3.239S9.327 4.1 8.172 4.1c-1.25 0-1.45.575-1.45 1.532v2.532h3.763l-.163 3.468h-3.6v9.631H3.056Z" fill="#31352B"/></svg><svg fill="none" viewBox="0 0 22 22" id="footer-calling" xmlns="http://www.w3.org/2000/svg"><g stroke="#31352B" stroke-width="1.5" stroke-linecap="round" stroke-linejoin="round"><path d="M13.353 1.5a7.97 7.97 0 0 1 7.04 7.032M13.353 5.043a4.426 4.426 0 0 1 3.5 3.5"/><path clip-rule="evenodd" d="M10.031 11.472c3.99 3.988 4.894-.625 7.434 1.913 2.449 2.448 3.857 2.938.754 6.04-.389.312-2.858 4.07-11.535-4.605-8.677-8.676-4.922-11.148-4.61-11.536 3.11-3.11 3.593-1.695 6.041.753 2.54 2.54-2.072 3.447 1.916 7.435Z"/></g></svg><svg fill="none" viewBox="0 0 18 20" id="footer-location" xmlns="http://www.w3.org/2000/svg"><g clip-rule="evenodd" stroke="#31352B" stroke-width="1.5" stroke-linecap="round" stroke-linejoin="round"><path d="M11.5 8.5a2.5 2.5 0 1 0-5 0 2.5 2.5 0 0 0 5 0Z"/><path d="M9 19C7.8 19 1.5 13.898 1.5 8.563 1.5 4.387 4.857 1 9 1c4.142 0 7.5 3.387 7.5 7.563C16.5 13.898 10.198 19 9 19Z"/></g></svg><svg fill="none" viewBox="0 0 22 20" id="footer-message" xmlns="http://www.w3.org/2000/svg"><g stroke="#31352B" stroke-width="1.5" stroke-linecap="round" stroke-linejoin="round"><path d="m16.903 6.851-4.444 3.613c-.84.666-2.02.666-2.86 0L5.12 6.851"/><path clip-rule="evenodd" d="M15.909 19C18.95 19.008 21 16.51 21 13.438V6.57C21 3.499 18.95 1 15.909 1H6.09C3.05 1 1 3.499 1 6.57v6.868C1 16.51 3.05 19.008 6.091 19h9.818Z"/></g></svg><svg fill="none" viewBox="0 0 16 16" id="footer-tg" xmlns="http://www.w3.org/2000/svg"><path d="M10 14.667a.668.668 0 0 1-.597-.369l-1.978-3.957a.67.67 0 0 1 .048-.678l3.194-4.33-4.33 3.194a.67.67 0 0 1-.678.048L1.702 6.597a.668.668 0 0 1 .067-1.222L14.436.708a.668.668 0 0 1 .856.856l-4.667 12.667a.666.666 0 0 1-.625.436Z" fill="#fff"/></svg><svg fill="none" viewBox="0 0 20 20" id="instagram" xmlns="http://www.w3.org/2000/svg"><path d="M9.76 6.749A3.258 3.258 0 0 0 6.507 10a3.258 3.258 0 0 0 3.251 3.251A3.258 3.258 0 0 0 13.011 10a3.258 3.258 0 0 0-3.252-3.251ZM19.51 10c0-1.346.013-2.68-.063-4.025-.075-1.56-.431-2.946-1.573-4.088C16.73.743 15.347.39 13.786.314 12.44.24 11.106.251 9.762.251 8.415.25 7.08.239 5.737.314 4.176.39 2.791.746 1.649 1.887.505 3.031.151 4.414.076 5.975 0 7.322.012 8.656.012 10c0 1.344-.012 2.68.064 4.025.075 1.56.431 2.946 1.573 4.088 1.144 1.144 2.527 1.497 4.088 1.573 1.346.076 2.68.063 4.025.063 1.346 0 2.68.013 4.024-.063 1.561-.076 2.947-.432 4.088-1.573 1.144-1.144 1.498-2.527 1.574-4.088.078-1.344.063-2.679.063-4.025Zm-9.75 5.003A4.996 4.996 0 0 1 4.755 10 4.996 4.996 0 0 1 9.76 4.997 4.996 4.996 0 0 1 14.762 10a4.996 4.996 0 0 1-5.003 5.003Zm5.207-9.042a1.167 1.167 0 0 1-1.169-1.169c0-.646.522-1.168 1.169-1.168a1.167 1.167 0 0 1 .826 1.995 1.167 1.167 0 0 1-.826.342Z" fill="#31352B"/></svg><svg fill="none" viewBox="0 0 24 25" id="search" xmlns="http://www.w3.org/2000/svg"><circle cx="11.417" cy="11.917" stroke="#31352B" stroke-width="1.5" stroke-linecap="round" stroke-linejoin="round" r="8.417"/><path d="m17.271 18.209 3.3 3.29" stroke="#31352B" stroke-width="1.5" stroke-linecap="round" stroke-linejoin="round"/></svg><svg fill="none" viewBox="0 0 22 18" id="twitter" xmlns="http://www.w3.org/2000/svg"><path d="M21.012 2.643a8.436 8.436 0 0 1-2.423.651A4.196 4.196 0 0 0 20.44.975a8.304 8.304 0 0 1-2.669 1.017 4.196 4.196 0 0 0-3.073-1.33 4.205 4.205 0 0 0-4.206 4.209c0 .325.04.65.103.964a11.954 11.954 0 0 1-8.673-4.403 4.177 4.177 0 0 0-.572 2.124c0 1.46.742 2.748 1.874 3.505a4.243 4.243 0 0 1-1.901-.535v.052a4.207 4.207 0 0 0 3.372 4.129 4.451 4.451 0 0 1-1.108.143c-.274 0-.533-.027-.794-.064a4.214 4.214 0 0 0 3.932 2.918 8.43 8.43 0 0 1-5.222 1.798c-.353 0-.679-.012-1.017-.051a11.911 11.911 0 0 0 6.46 1.887c7.737 0 11.97-6.409 11.97-11.972 0-.182 0-.365-.012-.547a9.06 9.06 0 0 0 2.109-2.176Z" fill="#31352B"/></svg></svg>