<?xml version="1.0" encoding="utf-8"?><svg viewBox="0 0 44 44" xmlns="http://www.w3.org/2000/svg" xmlns:xlink="http://www.w3.org/1999/xlink"><style>:root>svg{display:none}:root>svg:target{display:block}</style><svg fill="none" viewBox="0 0 16 16" id="arrow-btn" xmlns="http://www.w3.org/2000/svg"><path d="M10 14.667a.668.668 0 0 1-.597-.369l-1.978-3.957a.67.67 0 0 1 .048-.678l3.194-4.33-4.33 3.194a.67.67 0 0 1-.678.048L1.702 6.597a.668.668 0 0 1 .067-1.222L14.436.708a.668.668 0 0 1 .856.856l-4.667 12.667a.666.666 0 0 1-.625.436Z" fill="#fff"/></svg><svg fill="none" viewBox="0 0 44 44" id="asian-cuisine" xmlns="http://www.w3.org/2000/svg"><g clip-path="url(#ba)"><g clip-path="url(#bb)" fill="#363853"><path d="M15.132 13.567h2.124c.552 0 1 .448 1 1v1.465a.644.644 0 1 0 1.29 0v-1.465a2.292 2.292 0 0 0-2.29-2.29h-2.124a.984.984 0 0 1 0-1.965h4.711a2.275 2.275 0 0 0 2.272-2.273 2.275 2.275 0 0 0-2.272-2.272h-3.77a.645.645 0 0 0 0 1.29h3.77a.984.984 0 0 1 0 1.965h-4.711a2.275 2.275 0 0 0-2.273 2.272 2.275 2.275 0 0 0 2.273 2.273ZM7.389 17.892h2.108c.544 0 .987.443.987.988v1.454a.644.644 0 1 0 1.29 0V18.88a2.279 2.279 0 0 0-2.277-2.277H7.39a.972.972 0 0 1 0-1.94h2.465a.645.645 0 1 0 0-1.29H7.389a2.262 2.262 0 0 0-2.26 2.26 2.262 2.262 0 0 0 2.26 2.26ZM25.652 26.813a.645.645 0 1 0 0-1.29.645.645 0 0 0 0 1.29ZM28.832 28.273a.645.645 0 1 0 0-1.289.645.645 0 0 0 0 1.29ZM30.723 30.508a.645.645 0 1 0 0-1.29.645.645 0 0 0 0 1.29ZM28.059 25.266a.644.644 0 1 0 0-1.29.644.644 0 0 0 0 1.29ZM25.91 30.938a.645.645 0 1 0 0-1.29.645.645 0 0 0 0 1.29Z"/><path d="M42.911 22.81h-1.828l.904-1.867A2.507 2.507 0 0 0 44 18.49a2.507 2.507 0 0 0-2.102-2.47c-1.315-2.37-3.885-4.149-7.001-4.86v-.048a.644.644 0 0 0-1.264-.176 13.86 13.86 0 0 0-1.197-.1.644.644 0 0 0-1.163 0c-.405.017-.804.05-1.197.1a.644.644 0 0 0-1.264.176v.049c-3.116.71-5.686 2.49-7.001 4.859a2.506 2.506 0 0 0-2.093 2.685c-2.975.277-5.649 1.52-7.655 3.386h-4.05a.908.908 0 0 0-.69.318H5.43a2.118 2.118 0 0 0-1.957-1.337 2.106 2.106 0 0 0-2.082 2.397 2.107 2.107 0 0 0-1.066 3.104 2.106 2.106 0 0 0 1.778 3.229c.878 0 1.648-.554 1.958-1.337h1.704a.91.91 0 0 0 .586.623l2.02.686a10.897 10.897 0 0 0-.002 1.223c-.316.076-.61.207-.873.383a2.701 2.701 0 0 0-1.51-.46 2.721 2.721 0 0 0-2.717 2.719l.002.068h-.754c-.426 0-.803.24-.985.624a1.08 1.08 0 0 0 .144 1.156l1.934 2.35c.207.252.514.397.84.397h27.26a.644.644 0 1 0 0-1.29H4.545l-1.604-1.948h39.544l-1.603 1.949h-6.164a.645.645 0 1 0 0 1.289h6.258c.327 0 .633-.145.84-.397l1.934-2.35a1.08 1.08 0 0 0 .144-1.156 1.079 1.079 0 0 0-.984-.624h-.638a5.411 5.411 0 0 0 .64-3.671.645.645 0 0 0-.52-.52 5.409 5.409 0 0 0-5.008 1.731c-.37-.2-.79-.316-1.237-.325v-1.226h.688c1.09 0 1.977-.887 1.977-1.977v-.865h4.1c.6 0 1.088-.488 1.088-1.088v-1.866c0-.6-.488-1.088-1.089-1.088ZM6.291 33.707H4.56l-.002-.068a1.43 1.43 0 0 1 2.053-1.284 2.7 2.7 0 0 0-.323 1.284c0 .023.002.045.003.068Zm32.225-1.784a4.117 4.117 0 0 1 3.184-1.195 4.118 4.118 0 0 1-1.005 2.98h-1.063l.881-.881a.645.645 0 1 0-.911-.912l-.914.913a2.71 2.71 0 0 0-.348-.717c.057-.064.115-.127.176-.188Zm-13.013-17.98a10.714 10.714 0 0 1 3.309-1.452v.663a.644.644 0 1 0 1.29 0v-.918c.364-.053.735-.087 1.108-.106v1.024a.645.645 0 0 0 1.289 0V12.13c.373.02.743.054 1.109.106v.918a.645.645 0 0 0 1.289 0v-.663c1.206.308 2.333.799 3.309 1.452.95.637 1.724 1.406 2.288 2.256a2.526 2.526 0 0 0-.604.375 2.506 2.506 0 0 0-1.607-.587c-.595 0-1.163.215-1.607.587a2.506 2.506 0 0 0-1.607-.587c-.595 0-1.163.215-1.607.587a2.506 2.506 0 0 0-1.608-.587c-.594 0-1.162.215-1.607.587a2.506 2.506 0 0 0-1.607-.587c-.594 0-1.162.215-1.607.587a2.506 2.506 0 0 0-1.607-.587c-.594 0-1.162.215-1.607.587a2.524 2.524 0 0 0-.605-.375c.565-.85 1.339-1.62 2.29-2.256Zm-3.291 3.333c.43 0 .832.233 1.05.607a.645.645 0 0 0 1.114 0c.217-.374.62-.607 1.05-.607.43 0 .832.233 1.05.607a.645.645 0 0 0 1.115 0c.217-.374.619-.607 1.05-.607.43 0 .832.233 1.049.607a.645.645 0 0 0 1.115 0c.217-.374.62-.607 1.05-.607.43 0 .832.233 1.049.607a.645.645 0 0 0 1.115 0c.217-.374.62-.607 1.05-.607.43 0 .832.233 1.05.607a.645.645 0 0 0 1.114 0c.217-.374.62-.607 1.05-.607.43 0 .832.233 1.05.607a.645.645 0 0 0 1.114 0c.218-.374.62-.607 1.05-.607a1.215 1.215 0 0 1 0 2.427c-.43 0-.832-.232-1.05-.607a.645.645 0 0 0-1.114 0c-.218.375-.62.608-1.05.608-.43 0-.833-.233-1.05-.608a.645.645 0 0 0-1.115 0c-.217.375-.62.608-1.05.608-.43 0-.832-.233-1.049-.608a.645.645 0 0 0-1.115 0c-.217.375-.62.608-1.05.608-.43 0-.832-.233-1.05-.608a.645.645 0 0 0-1.114 0c-.218.375-.62.608-1.05.608-.43 0-.832-.233-1.05-.608a.645.645 0 0 0-1.114 0 1.22 1.22 0 0 1-.54.493 13.366 13.366 0 0 0-4.927-.942 1.215 1.215 0 0 1 1.202-1.37ZM8.392 23.38h2.472a11.78 11.78 0 0 0-.712.983h-1.76v-.983Zm-2.66 3.796H3.558a.644.644 0 0 0-.643.59.818.818 0 0 1-.81.747.815.815 0 0 1-.519-1.443.645.645 0 0 0 0-.993.815.815 0 0 1 .519-1.443c.42 0 .776.327.81.746a.644.644 0 0 0 .643.59h2.176v1.206Zm.221-2.494H4.061a2.129 2.129 0 0 0-1.36-1.248.813.813 0 1 1 1.583-.327.645.645 0 0 0 .642.591h2.177v.665h-.46a.909.909 0 0 0-.69.319Zm4.48 9.025H7.58a1.43 1.43 0 0 1 1.427-1.497 1.43 1.43 0 0 1 1.428 1.429l-.002.068Zm19.879 0h-2.244l-.002-.068a1.43 1.43 0 0 1 2.439-1.01 2.704 2.704 0 0 0-.196 1.01c0 .023.002.045.003.068Zm-.817-2.786a2.721 2.721 0 0 0-2.719 2.718c0 .023.002.045.003.068H11.722l.002-.068c0-1.273-.88-2.344-2.063-2.638a9.734 9.734 0 0 1-.016-.795l6.592 2.239a4.113 4.113 0 0 0 3.753-.556 4.106 4.106 0 0 0 1.732-3.375c0-.484-.083-.96-.247-1.413a.645.645 0 0 0-1.212.44c.113.311.17.639.17.973a2.83 2.83 0 0 1-1.195 2.327 2.83 2.83 0 0 1-2.587.383l-9.629-3.27v-2.302h10.55c.323 0 .641.055.946.162a.644.644 0 1 0 .427-1.217 4.142 4.142 0 0 0-1.373-.234h-5.845c2.056-2.676 5.438-4.428 9.256-4.428 6.253 0 11.34 4.696 11.34 10.468 0 .206-.006.412-.02.616-.389.108-.743.3-1.042.556a2.705 2.705 0 0 0-1.766-.654Zm4.959 2.786h-2.853a1.43 1.43 0 0 1 1.427-1.497c.787 0 1.428.64 1.428 1.429 0 .023 0 .046-.002.068Zm.404-2.486a2.72 2.72 0 0 0-.297.175 2.706 2.706 0 0 0-.964-.413 10.977 10.977 0 0 0-.01-1.287h1.271v1.525Zm2.665 2.418c0 .023-.002.045-.003.068h-1.777l.002-.068a2.7 2.7 0 0 0-.313-1.266 1.43 1.43 0 0 1 2.09 1.265Zm0-5.92c0 .38-.309.688-.688.688h-3.407c-.098-.53-.232-1.05-.404-1.553h4.499v.865Zm5.188-2.154H32.493a11.526 11.526 0 0 0-.853-1.464h2.735a.644.644 0 1 0 0-1.29h-3.756a12.413 12.413 0 0 0-2.077-1.82 2.46 2.46 0 0 0 1.705-.586 2.507 2.507 0 0 0 1.607.588c.595 0 1.163-.215 1.608-.588a2.506 2.506 0 0 0 1.607.588c.594 0 1.162-.215 1.607-.588a2.506 2.506 0 0 0 1.607.588c.594 0 1.162-.215 1.607-.588.215.18.459.323.72.423l-.96 1.984h-2.267a.644.644 0 1 0 0 1.289h5.328v1.464Z"/></g></g><defs><clipPath id="ba"><path fill="#fff" transform="matrix(1 0 0 -1 0 44)" d="M0 0h44v44H0z"/></clipPath><clipPath id="bb"><path fill="#fff" d="M0 0h44v44H0z"/></clipPath></defs></svg><svg fill="none" viewBox="0 0 44 44" id="burger" xmlns="http://www.w3.org/2000/svg"><g clip-path="url(#ca)" fill="#363853"><path d="M44 22.336c0-1.69-1.09-3.128-2.602-3.653-.232-5.241-2.189-9.263-5.825-11.966C32.254 4.251 27.688 3 22 3 16.312 3 11.746 4.25 8.427 6.717 4.791 9.42 2.834 13.442 2.602 18.683A3.873 3.873 0 0 0 0 22.336c0 .99.374 1.893.988 2.578A3.851 3.851 0 0 0 0 27.492c0 1.7 1.103 3.146 2.63 3.663.553 5.89 5.56 10.517 11.636 10.517h15.468c6.076 0 11.084-4.627 11.636-10.517A3.873 3.873 0 0 0 44 27.492c0-.99-.374-1.893-.988-2.578A3.852 3.852 0 0 0 44 22.336ZM22 5.578c7.393 0 16.151 2.28 16.803 12.89H5.197C5.849 7.859 14.607 5.579 22 5.579ZM3.867 21.047h36.266c.71 0 1.289.578 1.289 1.289 0 .71-.578 1.289-1.29 1.289H3.868a1.29 1.29 0 0 1-1.289-1.29c0-.71.578-1.288 1.29-1.288Zm25.867 18.047H14.266c-4.581 0-8.383-3.367-9.016-7.735h1.195c.862 0 1.134.293 1.677.878.667.718 1.58 1.7 3.566 1.7 2 0 2.889-.993 3.538-1.718.513-.572.77-.86 1.618-.86.848 0 1.105.288 1.617.86.65.725 1.54 1.718 3.539 1.718 2 0 2.89-.993 3.538-1.718.513-.572.77-.86 1.618-.86.848 0 1.105.288 1.618.86.65.725 1.539 1.718 3.538 1.718 2 0 2.89-.993 3.539-1.718.513-.572.77-.86 1.618-.86h1.281c-.633 4.367-4.435 7.735-9.016 7.735ZM40.133 28.78h-2.664c-2 0-2.89.993-3.539 1.719-.512.572-.77.86-1.617.86-.848 0-1.106-.288-1.618-.86-.65-.726-1.539-1.719-3.539-1.719s-2.889.993-3.538 1.719c-.513.572-.77.86-1.618.86-.848 0-1.105-.288-1.618-.86-.65-.726-1.538-1.719-3.538-1.719-2 0-2.89.993-3.539 1.719-.512.572-.77.86-1.617.86-.862 0-1.135-.294-1.677-.878-.667-.718-1.58-1.7-3.566-1.7H3.867a1.29 1.29 0 0 1-1.289-1.29c0-.71.578-1.289 1.29-1.289h36.265a1.29 1.29 0 0 1 0 2.578Z"/><path d="M14.266 15.89a1.289 1.289 0 1 0 0-2.577 1.289 1.289 0 0 0 0 2.578ZM29.734 15.89a1.289 1.289 0 1 0 0-2.577 1.289 1.289 0 0 0 0 2.578ZM24.578 13.313a1.289 1.289 0 1 0 0-2.579 1.289 1.289 0 0 0 0 2.579ZM19.422 10.734a1.29 1.29 0 1 0 0-2.578 1.29 1.29 0 0 0 0 2.578Z"/></g><defs><clipPath id="ca"><path fill="#363853" transform="matrix(1 0 0 -1 0 44)" d="M0 0h44v44H0z"/></clipPath></defs></svg><svg fill="none" viewBox="0 0 20 21" id="cart" xmlns="http://www.w3.org/2000/svg"><path d="m1.222 1.5 2.024.36.937 11.445c.075.935.836 1.652 1.751 1.65h10.614c.873.002 1.613-.657 1.737-1.543l.923-6.543c.104-.73-.392-1.41-1.104-1.515-.062-.009-14.533-.014-14.533-.014M12.29 9.027h2.698" stroke="#31352B" stroke-width="1.5" stroke-linecap="round" stroke-linejoin="round"/><path fill-rule="evenodd" clip-rule="evenodd" d="M5.507 18.413c.293 0 .53.244.53.543 0 .3-.237.544-.53.544a.536.536 0 0 1-.53-.544c0-.3.237-.543.53-.543ZM16.483 18.413c.293 0 .53.244.53.543 0 .3-.238.544-.53.544a.536.536 0 0 1-.53-.544c0-.3.237-.543.53-.543Z" fill="#31352B" stroke="#31352B" stroke-width="1.5" stroke-linecap="round" stroke-linejoin="round"/></svg><svg fill="none" viewBox="0 0 11 22" id="facebook" xmlns="http://www.w3.org/2000/svg"><path d="M3.056 21.263v-9.631H.509V8.164h2.547V5.202c0-2.328 1.504-4.465 4.97-4.465 1.404 0 2.442.134 2.442.134l-.082 3.239S9.327 4.1 8.172 4.1c-1.25 0-1.45.575-1.45 1.532v2.532h3.763l-.163 3.468h-3.6v9.631H3.056Z" fill="#31352B"/></svg><svg fill="none" viewBox="0 0 22 22" id="footer-calling" xmlns="http://www.w3.org/2000/svg"><g stroke="#31352B" stroke-width="1.5" stroke-linecap="round" stroke-linejoin="round"><path d="M13.353 1.5a7.97 7.97 0 0 1 7.04 7.032M13.353 5.043a4.426 4.426 0 0 1 3.5 3.5"/><path clip-rule="evenodd" d="M10.031 11.472c3.99 3.988 4.894-.625 7.434 1.913 2.449 2.448 3.857 2.938.754 6.04-.389.312-2.858 4.07-11.535-4.605-8.677-8.676-4.922-11.148-4.61-11.536 3.11-3.11 3.593-1.695 6.041.753 2.54 2.54-2.072 3.447 1.916 7.435Z"/></g></svg><svg fill="none" viewBox="0 0 18 20" id="footer-location" xmlns="http://www.w3.org/2000/svg"><g clip-rule="evenodd" stroke="#31352B" stroke-width="1.5" stroke-linecap="round" stroke-linejoin="round"><path d="M11.5 8.5a2.5 2.5 0 1 0-5 0 2.5 2.5 0 0 0 5 0Z"/><path d="M9 19C7.8 19 1.5 13.898 1.5 8.563 1.5 4.387 4.857 1 9 1c4.142 0 7.5 3.387 7.5 7.563C16.5 13.898 10.198 19 9 19Z"/></g></svg><svg fill="none" viewBox="0 0 22 20" id="footer-message" xmlns="http://www.w3.org/2000/svg"><g stroke="#31352B" stroke-width="1.5" stroke-linecap="round" stroke-linejoin="round"><path d="m16.903 6.851-4.444 3.613c-.84.666-2.02.666-2.86 0L5.12 6.851"/><path clip-rule="evenodd" d="M15.909 19C18.95 19.008 21 16.51 21 13.438V6.57C21 3.499 18.95 1 15.909 1H6.09C3.05 1 1 3.499 1 6.57v6.868C1 16.51 3.05 19.008 6.091 19h9.818Z"/></g></svg><svg fill="none" viewBox="0 0 16 16" id="footer-tg" xmlns="http://www.w3.org/2000/svg"><path d="M10 14.667a.668.668 0 0 1-.597-.369l-1.978-3.957a.67.67 0 0 1 .048-.678l3.194-4.33-4.33 3.194a.67.67 0 0 1-.678.048L1.702 6.597a.668.668 0 0 1 .067-1.222L14.436.708a.668.668 0 0 1 .856.856l-4.667 12.667a.666.666 0 0 1-.625.436Z" fill="#fff"/></svg><svg fill="none" viewBox="0 0 20 20" id="instagram" xmlns="http://www.w3.org/2000/svg"><path d="M9.76 6.749A3.258 3.258 0 0 0 6.507 10a3.258 3.258 0 0 0 3.251 3.251A3.258 3.258 0 0 0 13.011 10a3.258 3.258 0 0 0-3.252-3.251ZM19.51 10c0-1.346.013-2.68-.063-4.025-.075-1.56-.431-2.946-1.573-4.088C16.73.743 15.347.39 13.786.314 12.44.24 11.106.251 9.762.251 8.415.25 7.08.239 5.737.314 4.176.39 2.791.746 1.649 1.887.505 3.031.151 4.414.076 5.975 0 7.322.012 8.656.012 10c0 1.344-.012 2.68.064 4.025.075 1.56.431 2.946 1.573 4.088 1.144 1.144 2.527 1.497 4.088 1.573 1.346.076 2.68.063 4.025.063 1.346 0 2.68.013 4.024-.063 1.561-.076 2.947-.432 4.088-1.573 1.144-1.144 1.498-2.527 1.574-4.088.078-1.344.063-2.679.063-4.025Zm-9.75 5.003A4.996 4.996 0 0 1 4.755 10 4.996 4.996 0 0 1 9.76 4.997 4.996 4.996 0 0 1 14.762 10a4.996 4.996 0 0 1-5.003 5.003Zm5.207-9.042a1.167 1.167 0 0 1-1.169-1.169c0-.646.522-1.168 1.169-1.168a1.167 1.167 0 0 1 .826 1.995 1.167 1.167 0 0 1-.826.342Z" fill="#31352B"/></svg><svg fill="none" viewBox="0 0 44 44" id="pizza" xmlns="http://www.w3.org/2000/svg"><g clip-path="url(#ka)" fill="#363853"><path d="M43.745 43.752a.859.859 0 0 1-.892.198L7.159 31.223a4.698 4.698 0 0 1-4.256.338A4.706 4.706 0 0 1 .359 25.42a46.08 46.08 0 0 1 10.038-15.023A46.077 46.077 0 0 1 25.42.358 4.676 4.676 0 0 1 27.213 0c1.845 0 3.6 1.094 4.35 2.902a4.686 4.686 0 0 1-.026 3.65l12.418 36.31a.86.86 0 0 1-.21.89ZM12.563 31.325l3.783 1.349a2.187 2.187 0 0 0-.264-3.235 2.176 2.176 0 0 0-1.62-.434 2.176 2.176 0 0 0-1.452.838c-.328.428-.484.95-.447 1.482ZM29.974 3.56a2.985 2.985 0 0 0-3.896-1.614C15.075 6.504 6.505 15.074 1.947 26.077a2.962 2.962 0 0 0 0 2.282 2.962 2.962 0 0 0 1.614 1.614 2.963 2.963 0 0 0 2.282 0 2.962 2.962 0 0 0 1.614-1.613 38.432 38.432 0 0 1 8.373-12.531 38.433 38.433 0 0 1 12.53-8.373 2.985 2.985 0 0 0 1.614-3.896Zm7.635 26.06a2.176 2.176 0 0 0-1.685.855 2.176 2.176 0 0 0-.434 1.62 2.187 2.187 0 0 0 3.47 1.476l-1.35-3.95Zm1.922 5.621a3.913 3.913 0 0 1-5.745-2.922 3.884 3.884 0 0 1 .775-2.89 3.88 3.88 0 0 1 2.477-1.479l-1.708-4.994-1.964 1.507a.86.86 0 0 1-1.047-1.364l2.424-1.86-4.442-12.99a4.682 4.682 0 0 1-1.282.795C19.91 12.816 12.817 19.91 9.044 29.017a4.7 4.7 0 0 1-.482.882l2.301.82c.08-.693.347-1.354.783-1.922a3.883 3.883 0 0 1 3.11-1.53c.854 0 1.681.279 2.371.808a3.884 3.884 0 0 1 1.496 2.591c.122.93-.095 1.85-.581 2.613l10.682 3.809.405-.978a.86.86 0 0 1 1.588.658l-.372.898 11.406 4.066-2.22-6.491Z"/><path d="M9.281 20.945a.867.867 0 0 1-1.203.257.86.86 0 0 1-.24-1.19.859.859 0 0 1 1.443.933ZM7.974 23.08a40.676 40.676 0 0 0-2.237 4.567.86.86 0 0 1-1.588-.657 42.393 42.393 0 0 1 2.332-4.761.86.86 0 1 1 1.493.851ZM26.893 33.001a3.918 3.918 0 0 1-4.386-3.365 3.914 3.914 0 0 1 3.88-4.42 3.918 3.918 0 0 1 3.871 3.4A3.914 3.914 0 0 1 26.893 33Zm1.661-4.161a2.195 2.195 0 0 0-2.458-1.886 2.193 2.193 0 0 0-1.885 2.457 2.194 2.194 0 0 0 2.457 1.886 2.193 2.193 0 0 0 1.886-2.457ZM26.669 22.312a3.918 3.918 0 0 1-4.386-3.365 3.883 3.883 0 0 1 .774-2.891 3.883 3.883 0 0 1 3.105-1.53 3.918 3.918 0 0 1 3.872 3.4 3.914 3.914 0 0 1-3.365 4.386Zm1.661-4.162a2.195 2.195 0 0 0-2.457-1.886 2.177 2.177 0 0 0-1.452.838 2.176 2.176 0 0 0-.434 1.62 2.195 2.195 0 0 0 2.458 1.886 2.193 2.193 0 0 0 1.885-2.458ZM21.001 25.872l-2.641.348a.86.86 0 1 1-.225-1.704l2.641-.348a.86.86 0 0 1 .225 1.704ZM19.661 19.53l-.233 1.772a.86.86 0 1 1-1.704-.224l.234-1.772a.86.86 0 1 1 1.703.224Z"/></g><defs><clipPath id="ka"><path fill="#fff" transform="matrix(1 0 0 -1 0 44)" d="M0 0h44v44H0z"/></clipPath></defs></svg><svg fill="none" viewBox="0 0 44 44" id="sandwiches" xmlns="http://www.w3.org/2000/svg"><g clip-path="url(#la)" fill="#363853"><path d="M41.8 6.6h-1.467V5.133a2.2 2.2 0 0 0-2.2-2.2h-1.747L35.326.811A1.457 1.457 0 0 0 34.012 0H33c-.81 0-1.467.657-1.467 1.467v1.466h-8.066a2.2 2.2 0 0 0-2.2 2.2V6.6H19.8a2.2 2.2 0 0 0-2.2 2.2v1.467c0 .81.657 1.466 1.467 1.466h.078l.858 7.577-3.534-.83a11.125 11.125 0 0 0-.576-.813L14.646 12.3a.733.733 0 0 0-.713-.568H9.72C7.732 9.981 5.382 9.19 3.61 9.711L2.532 8.537a1.448 1.448 0 0 0-1.605-.366c-.56.216-.93.755-.928 1.355v32.289A2.188 2.188 0 0 0 2.185 44h35.948c.373 0 .686-.28.728-.65l3.593-31.617h.08c.81 0 1.466-.657 1.466-1.466V8.8a2.2 2.2 0 0 0-2.2-2.2ZM33 1.467h1.014l.733 1.466H33V1.467ZM22.733 5.133c0-.405.329-.733.734-.733h14.666c.405 0 .734.328.734.733V6.6H22.733V5.133Zm-2.053 15.84.046.009.593.14.397 4.162a6.758 6.758 0 0 0-3.94-1.242 6.278 6.278 0 0 0-.411-3.848l3.315.78Zm1.433 6.487.01.008c.265.245.517.505.755.778a8.687 8.687 0 0 1 1.876 3.388c.124.437.188.89.19 1.344l-6.849-7.47c1.523.17 2.942.86 4.018 1.952Zm-7.728-9.32v-.002c1.583 1.819 2.32 4.003 1.97 5.472l-7.463-8.137c1.505-.336 3.795.721 5.493 2.667Zm-1.038-4.94.586 2.497a9.348 9.348 0 0 0-1.913-1.154 11.57 11.57 0 0 0-.928-1.343h2.255Zm-3.687.546h.003c.061.07.11.146.17.22a3.99 3.99 0 0 0-2.012.338l-3.015-3.288c1.474.021 3.398 1.058 4.854 2.73Zm21.077 28.356a.717.717 0 0 1-.656.431H2.185a.719.719 0 0 1-.718-.718L1.453 9.533l14.72 16.048v.004l8.644 9.424.01.011 4.741 5.172c.017.022.034.044.053.065l.984 1.072a.716.716 0 0 1 .132.773Zm-4.54-7.757c.135-.438.203-.894.203-1.352.385.325.744.68 1.074 1.061a9.7 9.7 0 0 1 1.086 1.513c.428.72.73 1.507.895 2.329l-3.257-3.551Zm11.281 8.188h-5.342c.275-.76.1-1.61-.45-2.2l-.74-.806a6.691 6.691 0 0 0-.571-3.594h7.854l-.75 6.6Zm.917-8.066h-8.8a11.239 11.239 0 0 0-1.009-1.375 10.692 10.692 0 0 0-2.512-2.136 10.145 10.145 0 0 0-2.09-3.676c-.22-.25-.44-.482-.671-.706l-.58-6.11a.733.733 0 0 0-.56-.644l-.65-.154-.154-1.333h18.86l-1.834 16.134Zm2-17.6H21.203l-.58-5.134h20.357l-.583 5.134Zm2.138-6.6H19.067V8.8c0-.405.328-.733.733-.733h22c.405 0 .733.328.733.733v1.467Z"/><path d="M31.1 32.267c.042 0 .083-.006.124-.008.011 0 .023.008.034.008a.707.707 0 0 0 .109-.016 3.967 3.967 0 0 0 2.899-1.568 5.1 5.1 0 0 0 .714-4.474c-.102-.38-.195-.753-.285-1.113-.572-2.293-1.119-4.456-3.435-4.553-.024 0-.046-.004-.07-.004-.023 0-.057-.006-.09-.006-2.591 0-4.7 2.632-4.7 5.867s2.109 5.867 4.7 5.867Zm.568-10.157c.758.298 1.092 1.291 1.604 3.341.092.367.187.751.293 1.14a3.656 3.656 0 0 1-.464 3.2 2.592 2.592 0 0 1-.876.734 10.656 10.656 0 0 0-.733-3.68c-.073-.23-.146-.45-.211-.66-.427-1.389.073-3.188.387-4.075Zm-1.576.11a8.048 8.048 0 0 0-.212 4.393c.068.22.143.448.22.685.367 1.12.807 2.472.627 3.468-1.607-.25-2.86-2.112-2.86-4.366 0-1.947.935-3.6 2.225-4.18ZM3.881 38.563l-.518.518A.733.733 0 1 0 4.4 40.118l.518-.518a.733.733 0 0 0-1.037-1.037ZM10.893 33.626a.734.734 0 0 0-1.038-1.037l-.518.518a.733.733 0 1 0 1.037 1.038l.519-.519ZM4.4 31.748l-.518.519a.733.733 0 1 0 1.036 1.037l.519-.519A.733.733 0 0 0 4.4 31.748ZM4.4 26.615l-.518.518a.733.733 0 1 0 1.036 1.037l.519-.518A.733.733 0 0 0 4.4 26.615ZM11 38.563l-.518.518a.734.734 0 1 0 1.037 1.037l.518-.518A.733.733 0 0 0 11 38.563ZM16.348 38.563l-.518.519a.733.733 0 1 0 1.037 1.036l.518-.518a.733.733 0 0 0-1.037-1.037Z"/></g><defs><clipPath id="la"><path fill="#fff" transform="matrix(1 0 0 -1 0 44)" d="M0 0h44v44H0z"/></clipPath></defs></svg><svg fill="none" viewBox="0 0 24 25" id="search" xmlns="http://www.w3.org/2000/svg"><circle cx="11.417" cy="11.917" stroke="#31352B" stroke-width="1.5" stroke-linecap="round" stroke-linejoin="round" r="8.417"/><path d="m17.271 18.209 3.3 3.29" stroke="#31352B" stroke-width="1.5" stroke-linecap="round" stroke-linejoin="round"/></svg><svg fill="none" viewBox="0 0 44 44" id="sets" xmlns="http://www.w3.org/2000/svg"><path d="m31.158 14.83-.47-1.55a3.366 3.366 0 0 0-6.375 0l-.47 1.55a8.704 8.704 0 0 0-.243 4.033 3.793 3.793 0 0 0 1.953 2.643l-.527 11.787c-.07.658.143 1.315.587 1.806a2.561 2.561 0 0 0 3.78 0 2.291 2.291 0 0 0 .587-1.757l-.53-11.837a3.793 3.793 0 0 0 1.95-2.642 8.704 8.704 0 0 0-.242-4.034Zm-1.202 3.778a2.325 2.325 0 0 1-1.521 1.752.733.733 0 0 0-.475.719l.557 12.38a.848.848 0 0 1-.22.664 1.133 1.133 0 0 1-1.594 0 .88.88 0 0 1-.215-.713l.553-12.331a.733.733 0 0 0-.475-.72 2.325 2.325 0 0 1-1.522-1.751 7.233 7.233 0 0 1 .202-3.349l.47-1.55a1.901 1.901 0 0 1 3.568 0l.47 1.55a7.24 7.24 0 0 1 .202 3.349ZM19.8 11a.733.733 0 0 0-.733.733v6.297l-1.986 1.985a.733.733 0 0 0-.214.555l.641 12.833a.999.999 0 0 1-.277.748 1.032 1.032 0 0 1-1.46.006l-.007-.006a.998.998 0 0 1-.277-.748l.646-12.833a.733.733 0 0 0-.214-.555l-1.986-1.985v-6.297a.733.733 0 0 0-1.466 0v6.6c0 .195.077.381.214.519l1.97 1.97-.625 12.51a2.477 2.477 0 1 0 4.948 0l-.625-12.51 1.97-1.97a.733.733 0 0 0 .214-.519v-6.6A.733.733 0 0 0 19.8 11Z" fill="#363853"/><path d="M15.4 11a.733.733 0 0 0-.733.733V17.6a.733.733 0 0 0 1.466 0v-5.867A.733.733 0 0 0 15.4 11ZM17.6 11a.733.733 0 0 0-.733.733V17.6a.733.733 0 1 0 1.466 0v-5.867A.733.733 0 0 0 17.6 11Z" fill="#363853"/><path d="M22 0C9.85 0 0 9.85 0 22s9.85 22 22 22 22-9.85 22-22C43.986 9.855 34.145.014 22 0Zm0 42.533C10.66 42.533 1.467 33.34 1.467 22 1.467 10.66 10.66 1.467 22 1.467c11.34 0 20.533 9.193 20.533 20.533C42.52 33.335 33.335 42.52 22 42.533Z" fill="#363853"/><path d="M24.38 35.766a.733.733 0 0 0-.829-.655l.003-.001a13.46 13.46 0 0 1-3.108 0 .734.734 0 0 0-.17 1.458c1.144.133 2.3.133 3.446 0a.733.733 0 0 0 .658-.802ZM33.22 12.55a.733.733 0 1 0-1.124.946 13.2 13.2 0 0 1-.778 17.854.734.734 0 0 0 1.035 1.04c5.403-5.383 5.78-14.007.867-19.84ZM17.086 9.694h-.004.004ZM25.46 7.743a14.797 14.797 0 0 0-8.633.53.733.733 0 0 0 .514 1.373 13.322 13.322 0 0 1 7.774-.477.733.733 0 1 0 .344-1.426ZM12.65 31.313A13.115 13.115 0 0 1 8.8 22a13.103 13.103 0 0 1 2.523-7.765.733.733 0 1 0-1.185-.863 14.667 14.667 0 0 0 1.472 18.98.735.735 0 0 0 1.04-1.039Z" fill="#363853"/></svg><svg fill="none" viewBox="0 0 22 18" id="twitter" xmlns="http://www.w3.org/2000/svg"><path d="M21.012 2.643a8.436 8.436 0 0 1-2.423.651A4.196 4.196 0 0 0 20.44.975a8.304 8.304 0 0 1-2.669 1.017 4.196 4.196 0 0 0-3.073-1.33 4.205 4.205 0 0 0-4.206 4.209c0 .325.04.65.103.964a11.954 11.954 0 0 1-8.673-4.403 4.177 4.177 0 0 0-.572 2.124c0 1.46.742 2.748 1.874 3.505a4.243 4.243 0 0 1-1.901-.535v.052a4.207 4.207 0 0 0 3.372 4.129 4.451 4.451 0 0 1-1.108.143c-.274 0-.533-.027-.794-.064a4.214 4.214 0 0 0 3.932 2.918 8.43 8.43 0 0 1-5.222 1.798c-.353 0-.679-.012-1.017-.051a11.911 11.911 0 0 0 6.46 1.887c7.737 0 11.97-6.409 11.97-11.972 0-.182 0-.365-.012-.547a9.06 9.06 0 0 0 2.109-2.176Z" fill="#31352B"/></svg></svg>